<?xml version="1.0" standalone="no"?>
<!DOCTYPE svg PUBLIC "-//W3C//DTD SVG 20010904//EN"
 "http://www.w3.org/TR/2001/REC-SVG-20010904/DTD/svg10.dtd">
<svg version="1.0" xmlns="http://www.w3.org/2000/svg"
 width="500.000000pt" height="500.000000pt" viewBox="0 0 500.000000 500.000000"
 preserveAspectRatio="xMidYMid meet">

<g transform="translate(0.000000,500.000000) scale(0.100000,-0.100000)"
fill="#000000" stroke="none">
<path d="M1937 3800 c-76 -19 -187 -94 -187 -126 0 -14 -19 -19 -145 -34 -90
-10 -189 -43 -252 -83 -24 -15 -65 -32 -92 -38 -66 -14 -151 -66 -175 -109
-15 -26 -21 -58 -24 -129 -4 -86 -8 -101 -40 -160 -20 -37 -48 -85 -64 -108
-91 -134 -90 -238 2 -366 16 -23 45 -80 63 -127 84 -214 285 -451 582 -686
136 -108 269 -192 459 -292 197 -103 314 -174 351 -212 48 -50 76 -38 100 44
12 38 11 75 -1 242 -19 244 -10 370 36 501 62 178 156 305 314 423 110 81 156
94 431 115 444 34 563 53 673 109 72 37 126 95 170 185 35 73 37 80 37 181 0
94 -3 111 -28 164 -39 85 -86 138 -154 173 -58 31 -154 55 -189 48 -11 -2 -40
-7 -66 -10 -32 -4 -68 -20 -110 -48 l-63 -42 -210 0 c-154 1 -239 5 -320 19
-119 19 -305 70 -398 108 -51 21 -60 30 -83 76 -28 56 -84 110 -143 138 -44
22 -149 30 -190 16 -25 -9 -40 -7 -78 10 -53 23 -150 32 -206 18z m183 -135
c41 -21 89 -89 96 -137 7 -44 26 -58 77 -58 36 0 47 12 47 51 0 10 2 19 4 19
2 0 50 -23 107 -51 114 -56 119 -58 232 -100 79 -29 157 -49 257 -68 30 -6 80
-16 110 -22 75 -14 375 -24 484 -14 81 6 91 10 126 41 20 19 54 41 73 49 45
19 137 19 180 1 68 -28 137 -137 137 -215 0 -21 -55 -31 -183 -31 -84 0 -125
12 -173 53 -44 37 -69 34 -136 -18 -92 -73 -137 -89 -248 -89 -105 0 -134 10
-239 85 -29 21 -59 36 -65 32 -6 -4 -39 -26 -72 -50 -94 -66 -129 -66 -220 3
-17 13 -36 24 -42 24 -6 0 -32 -16 -58 -36 -93 -71 -154 -81 -244 -38 -30 15
-91 33 -135 40 -44 7 -129 32 -190 55 -96 37 -121 42 -195 43 -75 0 -92 -3
-143 -29 -74 -37 -137 -97 -137 -129 0 -15 12 -34 31 -50 l31 -27 47 44 c92
87 193 90 360 13 76 -36 126 -52 190 -61 47 -8 112 -26 145 -40 72 -34 112
-30 219 20 l76 36 62 -26 c84 -34 116 -32 209 14 44 21 82 36 85 31 2 -4 31
-20 62 -36 56 -27 184 -53 264 -54 54 0 157 37 226 81 l61 40 59 -33 c57 -33
60 -33 186 -33 70 0 127 -4 127 -9 0 -20 -53 -77 -93 -100 -59 -33 -105 -42
-337 -65 -113 -11 -254 -25 -315 -31 -60 -6 -173 -20 -250 -30 -77 -11 -273
-33 -435 -49 -162 -17 -365 -38 -450 -47 -303 -32 -464 7 -601 146 -81 82
-111 150 -112 255 -2 102 16 152 79 224 30 34 54 66 54 71 0 23 -25 60 -40 60
-43 0 -153 -107 -196 -190 -24 -46 -30 -70 -33 -143 -2 -51 2 -109 9 -135 39
-143 157 -279 310 -355 141 -70 236 -91 385 -83 200 10 355 24 460 39 118 18
225 28 225 22 0 -2 -30 -44 -66 -92 -36 -48 -77 -106 -91 -128 l-25 -40 -360
0 -360 -1 -19 -24 c-25 -33 -21 -58 14 -84 28 -20 39 -21 348 -21 175 0 319
-2 319 -5 0 -3 -9 -29 -20 -58 -11 -29 -20 -61 -20 -72 0 -19 -7 -20 -263 -20
-221 0 -266 -2 -285 -16 -29 -20 -29 -67 0 -94 21 -19 34 -20 269 -20 l247 0
4 -81 c2 -44 1 -83 -1 -85 -2 -2 -41 -4 -85 -4 -45 -1 -115 -5 -156 -10 -71
-8 -78 -7 -130 19 -127 63 -183 101 -349 235 -300 243 -449 438 -512 671 -38
141 -31 378 16 490 29 71 34 79 90 161 80 117 230 201 376 211 73 5 77 5 84
-16 4 -15 12 -20 22 -17 8 3 30 6 48 6 31 0 34 3 40 38 12 75 77 142 157 163
45 11 120 4 158 -16z m264 -2088 c4 -26 6 -50 4 -53 -7 -7 -151 71 -156 84 -4
13 29 20 93 18 l50 -1 9 -48z"/>
<path d="M1941 3574 c-68 -57 -56 -160 22 -201 69 -35 177 22 177 94 0 109
-120 173 -199 107z"/>
<path d="M3800 3333 c-36 -14 -52 -67 -28 -91 7 -7 36 -12 65 -12 43 0 54 4
64 21 26 50 -41 105 -101 82z"/>
<path d="M2695 1638 c-55 -31 -61 -92 -14 -132 17 -14 42 -26 56 -26 27 0 83
49 83 74 0 28 -22 63 -50 79 -33 20 -48 21 -75 5z"/>
</g>
</svg>
